# xmcd CD database file
#
# Track frame offsets:
#	150
#	26284
#	42895
#	62799
#	83129
#	101350
#	124149
#	137460
#
# Disc length: 2433 seconds
#
# Revision: 0
# Processed by: cddbd v1.5.1PL0 Copyright (c) Steve Scherf et al.
# Submitted via: CDex 1.51
#
DISCID=5c097f08
DTITLE=sinfonia - 拝啓初音様
DYEAR=1900
DGENRE=未分類 (日本)
TTITLE0=Red tint - transu mix -
TTITLE1=Red tint - afropia mix -
TTITLE2=Red tint - rain mix -
TTITLE3=Throwing into the banquet - MFU mix -
TTITLE4=World - the world saga mix -
TTITLE5=Atlach=Nacha - with YM 2th -
TTITLE6=Atlach=Nacha - Inspiration mix -
TTITLE7=ATLACH=NACHA - atlaquest mix -
EXTD=
EXTT0=
EXTT1=
EXTT2=
EXTT3=
EXTT4=
EXTT5=
EXTT6=
EXTT7=
PLAYORDER=
